# xmcd
#
# Track frame offsets:
#	150
#	25555
#	45000
#	62960
#	91285
#	106718
#	124478
#	138483
#	162420
#
# Disc length: 2501 seconds
#
# Revision: 0
# Processed by: cddbd v1.5.2PL0 Copyright (c) Steve Scherf et al.
# Submitted via: dBpowerAMP V4.0
#
DISCID=6d09c309
DTITLE=Joe Lee Wilson - Hey, Look At You
DYEAR=1976
DGENRE=Jazz
TTITLE0=Hey, Look At You
TTITLE1=Why Did You Come Into My Life
TTITLE2=Return Of The Prodigal Son
TTITLE3=Feeling Good
TTITLE4=Without A Song
TTITLE5=The Midnight Sun Will Never Set
TTITLE6=Soul Lady
TTITLE7=Sphirlov (Hurricane)
TTITLE8=Hawk Is Talkin'
EXTD=Sean P.
EXTT0=
EXTT1=
EXTT2=
EXTT3=
EXTT4=
EXTT5=
EXTT6=
EXTT7=
EXTT8=
PLAYORDER=
